<svg width="1440" height="17" viewBox="0 0 1440 17" fill="none" xmlns="http://www.w3.org/2000/svg">
<path d="M-5 9.07129L2.07107 2.00022L9.14214 9.07129" stroke="black" stroke-width="2"/>
<path d="M8 9.07129L15.0711 2.00022L22.1421 9.07129" stroke="black" stroke-width="2"/>
<path d="M21 9.07129L28.0711 2.00022L35.1421 9.07129" stroke="black" stroke-width="2"/>
<path d="M34 9.07129L41.0711 2.00022L48.1421 9.07129" stroke="black" stroke-width="2"/>
<path d="M47 9.07129L54.0711 2.00022L61.1421 9.07129" stroke="black" stroke-width="2"/>
<path d="M60 9.07129L67.0711 2.00022L74.1421 9.07129" stroke="black" stroke-width="2"/>
<path d="M73 9.07129L80.0711 2.00022L87.1421 9.07129" stroke="black" stroke-width="2"/>
<path d="M86 9.07129L93.0711 2.00022L100.142 9.07129" stroke="black" stroke-width="2"/>
<path d="M99 9.07129L106.071 2.00022L113.142 9.07129" stroke="black" stroke-width="2"/>
<path d="M112 9.07129L119.071 2.00022L126.142 9.07129" stroke="black" stroke-width="2"/>
<path d="M125 9.07129L132.071 2.00022L139.142 9.07129" stroke="black" stroke-width="2"/>
<path d="M138 9.07129L145.071 2.00022L152.142 9.07129" stroke="black" stroke-width="2"/>
<path d="M151 9.07129L158.071 2.00022L165.142 9.07129" stroke="black" stroke-width="2"/>
<path d="M164 9.07129L171.071 2.00022L178.142 9.07129" stroke="black" stroke-width="2"/>
<path d="M177 9.07129L184.071 2.00022L191.142 9.07129" stroke="black" stroke-width="2"/>
<path d="M190 9.07129L197.071 2.00022L204.142 9.07129" stroke="black" stroke-width="2"/>
<path d="M203 9.07129L210.071 2.00022L217.142 9.07129" stroke="black" stroke-width="2"/>
<path d="M216 9.07129L223.071 2.00022L230.142 9.07129" stroke="black" stroke-width="2"/>
<path d="M229 9.07129L236.071 2.00022L243.142 9.07129" stroke="black" stroke-width="2"/>
<path d="M242 9.07129L249.071 2.00022L256.142 9.07129" stroke="black" stroke-width="2"/>
<path d="M255 9.07129L262.071 2.00022L269.142 9.07129" stroke="black" stroke-width="2"/>
<path d="M268 9.07129L275.071 2.00022L282.142 9.07129" stroke="black" stroke-width="2"/>
<path d="M281 9.07129L288.071 2.00022L295.142 9.07129" stroke="black" stroke-width="2"/>
<path d="M294 9.07129L301.071 2.00022L308.142 9.07129" stroke="black" stroke-width="2"/>
<path d="M307 9.07129L314.071 2.00022L321.142 9.07129" stroke="black" stroke-width="2"/>
<path d="M320 9.07129L327.071 2.00022L334.142 9.07129" stroke="black" stroke-width="2"/>
<path d="M333 9.07129L340.071 2.00022L347.142 9.07129" stroke="black" stroke-width="2"/>
<path d="M346 9.07129L353.071 2.00022L360.142 9.07129" stroke="black" stroke-width="2"/>
<path d="M359 9.07129L366.071 2.00022L373.142 9.07129" stroke="black" stroke-width="2"/>
<path d="M372 9.07129L379.071 2.00022L386.142 9.07129" stroke="black" stroke-width="2"/>
<path d="M385 9.07129L392.071 2.00022L399.142 9.07129" stroke="black" stroke-width="2"/>
<path d="M398 9.07129L405.071 2.00022L412.142 9.07129" stroke="black" stroke-width="2"/>
<path d="M411 9.07129L418.071 2.00022L425.142 9.07129" stroke="black" stroke-width="2"/>
<path d="M424 9.07129L431.071 2.00022L438.142 9.07129" stroke="black" stroke-width="2"/>
<path d="M437 9.07129L444.071 2.00022L451.142 9.07129" stroke="black" stroke-width="2"/>
<path d="M450 9.07129L457.071 2.00022L464.142 9.07129" stroke="black" stroke-width="2"/>
<path d="M463 9.07129L470.071 2.00022L477.142 9.07129" stroke="black" stroke-width="2"/>
<path d="M476 9.07129L483.071 2.00022L490.142 9.07129" stroke="black" stroke-width="2"/>
<path d="M489 9.07129L496.071 2.00022L503.142 9.07129" stroke="black" stroke-width="2"/>
<path d="M502 9.07129L509.071 2.00022L516.142 9.07129" stroke="black" stroke-width="2"/>
<path d="M515 9.07129L522.071 2.00022L529.142 9.07129" stroke="black" stroke-width="2"/>
<path d="M528 9.07129L535.071 2.00022L542.142 9.07129" stroke="black" stroke-width="2"/>
<path d="M541 9.07129L548.071 2.00022L555.142 9.07129" stroke="black" stroke-width="2"/>
<path d="M554 9.07129L561.071 2.00022L568.142 9.07129" stroke="black" stroke-width="2"/>
<path d="M567 9.07129L574.071 2.00022L581.142 9.07129" stroke="black" stroke-width="2"/>
<path d="M580 9.07129L587.071 2.00022L594.142 9.07129" stroke="black" stroke-width="2"/>
<path d="M593 9.07129L600.071 2.00022L607.142 9.07129" stroke="black" stroke-width="2"/>
<path d="M606 9.07129L613.071 2.00022L620.142 9.07129" stroke="black" stroke-width="2"/>
<path d="M619 9.07129L626.071 2.00022L633.142 9.07129" stroke="black" stroke-width="2"/>
<path d="M632 9.07129L639.071 2.00022L646.142 9.07129" stroke="black" stroke-width="2"/>
<path d="M645 9.07129L652.071 2.00022L659.142 9.07129" stroke="black" stroke-width="2"/>
<path d="M658 9.07129L665.071 2.00022L672.142 9.07129" stroke="black" stroke-width="2"/>
<path d="M671 9.07129L678.071 2.00022L685.142 9.07129" stroke="black" stroke-width="2"/>
<path d="M684 9.07129L691.071 2.00022L698.142 9.07129" stroke="black" stroke-width="2"/>
<path d="M697 9.07129L704.071 2.00022L711.142 9.07129" stroke="black" stroke-width="2"/>
<path d="M710 9.07129L717.071 2.00022L724.142 9.07129" stroke="black" stroke-width="2"/>
<path d="M723 9.07129L730.071 2.00022L737.142 9.07129" stroke="black" stroke-width="2"/>
<path d="M736 9.07129L743.071 2.00022L750.142 9.07129" stroke="black" stroke-width="2"/>
<path d="M749 9.07129L756.071 2.00022L763.142 9.07129" stroke="black" stroke-width="2"/>
<path d="M762 9.07129L769.071 2.00022L776.142 9.07129" stroke="black" stroke-width="2"/>
<path d="M775 9.07129L782.071 2.00022L789.142 9.07129" stroke="black" stroke-width="2"/>
<path d="M788 9.07129L795.071 2.00022L802.142 9.07129" stroke="black" stroke-width="2"/>
<path d="M801 9.07129L808.071 2.00022L815.142 9.07129" stroke="black" stroke-width="2"/>
<path d="M814 9.07129L821.071 2.00022L828.142 9.07129" stroke="black" stroke-width="2"/>
<path d="M827 9.07129L834.071 2.00022L841.142 9.07129" stroke="black" stroke-width="2"/>
<path d="M840 9.07129L847.071 2.00022L854.142 9.07129" stroke="black" stroke-width="2"/>
<path d="M853 9.07129L860.071 2.00022L867.142 9.07129" stroke="black" stroke-width="2"/>
<path d="M866 9.07129L873.071 2.00022L880.142 9.07129" stroke="black" stroke-width="2"/>
<path d="M879 9.07129L886.071 2.00022L893.142 9.07129" stroke="black" stroke-width="2"/>
<path d="M892 9.07129L899.071 2.00022L906.142 9.07129" stroke="black" stroke-width="2"/>
<path d="M905 9.07129L912.071 2.00022L919.142 9.07129" stroke="black" stroke-width="2"/>
<path d="M918 9.07129L925.071 2.00022L932.142 9.07129" stroke="black" stroke-width="2"/>
<path d="M931 9.07129L938.071 2.00022L945.142 9.07129" stroke="black" stroke-width="2"/>
<path d="M944 9.07129L951.071 2.00022L958.142 9.07129" stroke="black" stroke-width="2"/>
<path d="M957 9.07129L964.071 2.00022L971.142 9.07129" stroke="black" stroke-width="2"/>
<path d="M970 9.07129L977.071 2.00022L984.142 9.07129" stroke="black" stroke-width="2"/>
<path d="M983 9.07129L990.071 2.00022L997.142 9.07129" stroke="black" stroke-width="2"/>
<path d="M996 9.07129L1003.07 2.00022L1010.14 9.07129" stroke="black" stroke-width="2"/>
<path d="M1009 9.07129L1016.07 2.00022L1023.14 9.07129" stroke="black" stroke-width="2"/>
<path d="M1022 9.07129L1029.07 2.00022L1036.14 9.07129" stroke="black" stroke-width="2"/>
<path d="M1035 9.07129L1042.07 2.00022L1049.14 9.07129" stroke="black" stroke-width="2"/>
<path d="M1048 9.07129L1055.07 2.00022L1062.14 9.07129" stroke="black" stroke-width="2"/>
<path d="M1061 9.07129L1068.07 2.00022L1075.14 9.07129" stroke="black" stroke-width="2"/>
<path d="M1074 9.07129L1081.07 2.00022L1088.14 9.07129" stroke="black" stroke-width="2"/>
<path d="M1087 9.07129L1094.07 2.00022L1101.14 9.07129" stroke="black" stroke-width="2"/>
<path d="M1100 9.07129L1107.07 2.00022L1114.14 9.07129" stroke="black" stroke-width="2"/>
<path d="M1113 9.07129L1120.07 2.00022L1127.14 9.07129" stroke="black" stroke-width="2"/>
<path d="M1126 9.07129L1133.07 2.00022L1140.14 9.07129" stroke="black" stroke-width="2"/>
<path d="M1139 9.07129L1146.07 2.00022L1153.14 9.07129" stroke="black" stroke-width="2"/>
<path d="M1152 9.07129L1159.07 2.00022L1166.14 9.07129" stroke="black" stroke-width="2"/>
<path d="M1165 9.07129L1172.07 2.00022L1179.14 9.07129" stroke="black" stroke-width="2"/>
<path d="M1178 9.07129L1185.07 2.00022L1192.14 9.07129" stroke="black" stroke-width="2"/>
<path d="M1191 9.07129L1198.07 2.00022L1205.14 9.07129" stroke="black" stroke-width="2"/>
<path d="M1204 9.07129L1211.07 2.00022L1218.14 9.07129" stroke="black" stroke-width="2"/>
<path d="M1217 9.07129L1224.07 2.00022L1231.14 9.07129" stroke="black" stroke-width="2"/>
<path d="M1230 9.07129L1237.07 2.00022L1244.14 9.07129" stroke="black" stroke-width="2"/>
<path d="M1243 9.07129L1250.07 2.00022L1257.14 9.07129" stroke="black" stroke-width="2"/>
<path d="M1256 9.07129L1263.07 2.00022L1270.14 9.07129" stroke="black" stroke-width="2"/>
<path d="M1269 9.07129L1276.07 2.00022L1283.14 9.07129" stroke="black" stroke-width="2"/>
<path d="M1282 9.07129L1289.07 2.00022L1296.14 9.07129" stroke="black" stroke-width="2"/>
<path d="M1295 9.07129L1302.07 2.00022L1309.14 9.07129" stroke="black" stroke-width="2"/>
<path d="M1308 9.07129L1315.07 2.00022L1322.14 9.07129" stroke="black" stroke-width="2"/>
<path d="M1321 9.07129L1328.07 2.00022L1335.14 9.07129" stroke="black" stroke-width="2"/>
<path d="M1334 9.07129L1341.07 2.00022L1348.14 9.07129" stroke="black" stroke-width="2"/>
<path d="M1347 9.07129L1354.07 2.00022L1361.14 9.07129" stroke="black" stroke-width="2"/>
<path d="M1360 9.07129L1367.07 2.00022L1374.14 9.07129" stroke="black" stroke-width="2"/>
<path d="M1373 9.07129L1380.07 2.00022L1387.14 9.07129" stroke="black" stroke-width="2"/>
<path d="M1386 9.07129L1393.07 2.00022L1400.14 9.07129" stroke="black" stroke-width="2"/>
<path d="M1399 9.07129L1406.07 2.00022L1413.14 9.07129" stroke="black" stroke-width="2"/>
<path d="M1412 9.07129L1419.07 2.00022L1426.14 9.07129" stroke="black" stroke-width="2"/>
<path d="M1425 9.07129L1432.07 2.00022L1439.14 9.07129" stroke="black" stroke-width="2"/>
<path d="M1438 9.07129L1445.07 2.00022L1452.14 9.07129" stroke="black" stroke-width="2"/>
</svg>
