<svg width="16" height="16" viewBox="0 0 16 16" fill="none" xmlns="http://www.w3.org/2000/svg">
<path d="M8.14686 0.199707C3.8121 0.199707 0.299988 3.74346 0.299988 8.04658C0.299988 12.3813 3.8121 15.8935 8.14686 15.8935C12.45 15.8935 15.9937 12.3813 15.9937 8.04658C15.9937 3.74346 12.45 0.199707 8.14686 0.199707ZM13.3043 3.83838C14.2535 4.97744 14.823 6.43291 14.823 8.01494C14.6016 7.95166 12.3867 7.50869 10.1719 7.79346C9.98202 7.35049 9.82382 6.9708 9.57069 6.46455C12.0703 5.45205 13.1777 4.02822 13.3043 3.83838ZM12.5766 3.04736C12.45 3.23721 11.4375 4.59775 9.06444 5.48369C7.95702 3.45869 6.75468 1.81338 6.56483 1.56025C8.68475 1.054 10.9312 1.59189 12.5766 3.04736ZM5.26757 2.00322C5.45741 2.25635 6.65975 3.90166 7.76718 5.89502C4.63475 6.71768 1.88202 6.71768 1.56561 6.68604C2.00858 4.62939 3.40077 2.88916 5.26757 2.00322ZM1.43905 8.07822C1.43905 8.01494 1.43905 7.95166 1.43905 7.85674C1.72382 7.88838 4.9828 7.92002 8.30507 6.90752C8.52655 7.28721 8.68475 7.66689 8.8746 8.04658C6.43827 8.74268 4.22343 10.7044 3.14764 12.5396C2.07186 11.3688 1.43905 9.78682 1.43905 8.07822ZM4.00194 13.3622C4.72968 11.9384 6.62811 10.0716 9.31757 9.154C10.2668 11.5903 10.6465 13.647 10.7414 14.2481C8.58983 15.1657 5.9953 14.9126 4.00194 13.3622ZM11.8805 13.6153C11.8172 13.2356 11.4375 11.2739 10.5832 8.8376C12.6715 8.52119 14.5066 9.05908 14.7598 9.12236C14.4433 10.9892 13.3676 12.6028 11.8805 13.6153Z" fill="#111928"/>
</svg>
