<svg width="18" height="14" viewBox="0 0 18 14" fill="none" xmlns="http://www.w3.org/2000/svg">
<path d="M15.4231 3.25898C16.0559 2.78437 16.6254 2.21484 17.0684 1.55039C16.4989 1.80352 15.8344 1.99336 15.1699 2.05664C15.866 1.64531 16.3723 1.0125 16.6254 0.221484C15.9926 0.601172 15.2649 0.885937 14.5371 1.04414C13.9043 0.379687 13.05 0 12.1008 0C10.2656 0 8.77854 1.48711 8.77854 3.32227C8.77854 3.57539 8.81018 3.82852 8.87346 4.08164C6.12073 3.92344 3.65276 2.59453 2.00745 0.601172C1.72268 1.07578 1.56448 1.64531 1.56448 2.27813C1.56448 3.41719 2.13401 4.42969 3.05159 5.03086C2.5137 4.99922 1.97581 4.87266 1.53284 4.61953V4.65117C1.53284 6.26484 2.6719 7.59375 4.19065 7.91016C3.93752 7.97344 3.62112 8.03672 3.33635 8.03672C3.11487 8.03672 2.92502 8.00508 2.70354 7.97344C3.11487 9.30234 4.34885 10.2516 5.80432 10.2832C4.66526 11.1691 3.24143 11.707 1.69104 11.707C1.40627 11.707 1.15315 11.6754 0.900024 11.6437C2.35549 12.593 4.09573 13.1309 5.99417 13.1309C12.1008 13.1309 15.4231 8.1 15.4231 3.70195C15.4231 3.54375 15.4231 3.41719 15.4231 3.25898Z" fill="#111928"/>
</svg>
