<svg width="69" height="37" viewBox="0 0 69 37" fill="none" xmlns="http://www.w3.org/2000/svg">
<path d="M34.5 37C25.4243 37 16.8459 35.1752 10.3811 31.7772C3.66757 28.3163 0 23.5969 0 18.5C0 13.4031 3.66757 8.68367 10.3811 5.22279C16.8459 1.82483 25.4243 0 34.5 0C43.5757 0 52.1541 1.82483 58.6189 5.22279C65.3324 8.68367 69 13.466 69 18.5629C69 23.6599 65.3324 28.3163 58.6189 31.8401C52.1541 35.1752 43.5757 37 34.5 37ZM34.5 2.45408C25.7973 2.45408 17.6541 4.21599 11.5 7.36225C5.65676 10.4456 2.42432 14.4099 2.42432 18.5C2.42432 22.5901 5.65676 26.5544 11.5 29.6378C17.5919 32.784 25.7973 34.5459 34.5 34.5459C43.2027 34.5459 51.3459 32.784 57.5 29.6378C63.3432 26.6173 66.5757 22.6531 66.5757 18.5C66.5757 14.3469 63.3432 10.4456 57.5 7.36225C51.3459 4.21599 43.2027 2.45408 34.5 2.45408Z" fill="black"/>
</svg>
